<?xml version="1.0" encoding="utf-8"?>
<!-- Generator: Adobe Illustrator 21.0.2, SVG Export Plug-In . SVG Version: 6.00 Build 0)  -->
<svg version="1.1" id="Calque_1" xmlns="http://www.w3.org/2000/svg" xmlns:xlink="http://www.w3.org/1999/xlink" x="0px" y="0px"
	 viewBox="0 0 562 211" style="enable-background:new 0 0 562 211;" xml:space="preserve">
<style type="text/css">
	.st0{fill:#9FC7E2;stroke:#16537C;stroke-width:3;stroke-linejoin:round;stroke-miterlimit:10;}
	.st1{fill:url(#SVGID_1_);stroke:#16537C;stroke-width:3;stroke-linejoin:round;stroke-miterlimit:10;}
	.st2{fill:#2771AD;stroke:#16537C;stroke-width:3;stroke-linejoin:round;stroke-miterlimit:10;}
	.st3{fill:url(#SVGID_2_);stroke:#16537C;stroke-width:3;stroke-linejoin:round;stroke-miterlimit:10;}
	.st4{fill:url(#SVGID_3_);stroke:#16537C;stroke-width:3;stroke-linejoin:round;stroke-miterlimit:10;}
	.st5{fill:url(#SVGID_4_);stroke:#16537C;stroke-width:3;stroke-linejoin:round;stroke-miterlimit:10;}
	.st6{fill:url(#SVGID_5_);stroke:#16537C;stroke-width:3;stroke-linejoin:round;stroke-miterlimit:10;}
	.st7{fill:url(#SVGID_6_);stroke:#16537C;stroke-width:3;stroke-linejoin:round;stroke-miterlimit:10;}
	.st8{fill:url(#SVGID_7_);stroke:#16537C;stroke-width:3;stroke-linejoin:round;stroke-miterlimit:10;}
	.st9{fill:url(#SVGID_8_);stroke:#16537C;stroke-width:3;stroke-linejoin:round;stroke-miterlimit:10;}
	.st10{fill:#5DA3E8;stroke:#16537C;stroke-width:3;stroke-linejoin:round;stroke-miterlimit:10;}
	.st11{fill:none;stroke:#16537C;stroke-width:3;stroke-linejoin:round;stroke-miterlimit:10;}
	.st12{fill:#7AB5E5;stroke:#16537C;stroke-width:3;stroke-linejoin:round;stroke-miterlimit:10;}
	.st13{fill:url(#SVGID_9_);stroke:#16537C;stroke-width:3;stroke-linejoin:round;stroke-miterlimit:10;}
	.st14{fill:url(#SVGID_10_);stroke:#16537C;stroke-width:3;stroke-linejoin:round;stroke-miterlimit:10;}
	.st15{fill:url(#SVGID_11_);stroke:#16537C;stroke-width:3;stroke-linejoin:round;stroke-miterlimit:10;}
	.st16{fill:url(#SVGID_12_);stroke:#16537C;stroke-width:3;stroke-linejoin:round;stroke-miterlimit:10;}
	.st17{fill:url(#SVGID_13_);stroke:#16537C;stroke-width:3;stroke-linejoin:round;stroke-miterlimit:10;}
	.st18{fill:url(#SVGID_14_);stroke:#16537C;stroke-width:3;stroke-linejoin:round;stroke-miterlimit:10;}
	.st19{fill:url(#SVGID_15_);stroke:#16537C;stroke-width:3;stroke-linejoin:round;stroke-miterlimit:10;}
	.st20{fill:url(#SVGID_16_);stroke:#16537C;stroke-width:3;stroke-linejoin:round;stroke-miterlimit:10;}
	.st21{fill:url(#SVGID_17_);stroke:#16537C;stroke-width:3;stroke-linejoin:round;stroke-miterlimit:10;}
	.st22{fill:url(#SVGID_18_);stroke:#16537C;stroke-width:3;stroke-linejoin:round;stroke-miterlimit:10;}
	.st23{fill:#16537C;}
	.st24{fill:#5DA3E8;}
	.st25{fill:url(#SVGID_19_);stroke:#16537C;stroke-width:3;stroke-linejoin:round;stroke-miterlimit:10;}
</style>
<g>
	<path class="st0" d="M400.7,61.2c1.2,0,2.3-0.5,3.2-1.4c18.4-19.2,33.4-6.4,35-4.9c1.8,1.7,4.6,1.6,6.3-0.2
		c1.7-1.8,1.6-4.6-0.2-6.3c-0.2-0.2-22.6-20.9-47.6,5.2c-1.7,1.8-1.6,4.6,0.1,6.3C398.4,60.8,399.6,61.2,400.7,61.2z"/>
	<path class="st0" d="M467.8,68.7c0.9,0,1.9-0.3,2.6-1c1.6-1.5,1.8-4,0.3-5.6c-0.4-0.5-10.5-11.6-24.7-13.6
		c-10.4-1.4-25.6-2.3-37.5,7.2c-1.7,1.4-2,3.9-0.6,5.6c1.4,1.7,3.9,2,5.6,0.6c7.3-5.8,17.3-7.5,31.5-5.6c11.3,1.6,19.8,10.9,19.9,11
		C465.6,68.2,466.7,68.7,467.8,68.7z"/>
	
		<linearGradient id="SVGID_1_" gradientUnits="userSpaceOnUse" x1="2864.5249" y1="109.5411" x2="2864.5249" y2="162.7226" gradientTransform="matrix(-1 0 0 1 3150.7583 0)">
		<stop  offset="0" style="stop-color:#FFFFFF"/>
		<stop  offset="1" style="stop-color:#7AB5E5"/>
	</linearGradient>
	<polygon class="st1" points="30.3,157.7 71.5,168.2 495.1,168.2 538.4,157.7 542.2,128.7 537.5,101.8 190.1,101.8 30.3,115.6 	"/>
	<path class="st2" d="M399.7,168.5c0-24.3,19.7-44,44-44c24.3,0,44,19.7,44,44H399.7z"/>
	<path class="st2" d="M72.4,171.4c0-21.3,17.3-38.6,38.6-38.6s38.6,17.3,38.6,38.6H72.4z"/>
	<polygon class="st2" points="487.8,177 496.1,177 538.8,165.1 551.7,153.9 554,146.5 539.1,152.2 538.4,157.7 495.1,168.2 
		487.8,168.5 	"/>
	
		<linearGradient id="SVGID_2_" gradientUnits="userSpaceOnUse" x1="2875.3772" y1="171.944" x2="2875.3772" y2="194.6695" gradientTransform="matrix(-1 0 0 1 3150.7583 0)">
		<stop  offset="0" style="stop-color:#9FC7E2"/>
		<stop  offset="1" style="stop-color:#2771AD"/>
	</linearGradient>
	<path class="st3" d="M398.2,168.5v16.7c0,5.6-4.6,10.2-10.2,10.2H166.2c-7.5,0-13.6-6.1-13.6-13.6v-13.5L398.2,168.5z"/>
	
		<linearGradient id="SVGID_3_" gradientUnits="userSpaceOnUse" x1="2707.0044" y1="151.9549" x2="2707.0044" y2="207.1863" gradientTransform="matrix(-1 0 0 1 3150.7583 0)">
		<stop  offset="0" style="stop-color:#BAD3E0"/>
		<stop  offset="5.468234e-02" style="stop-color:#A9CAE1"/>
		<stop  offset="0.1799" style="stop-color:#88B9E4"/>
		<stop  offset="0.2997" style="stop-color:#70ADE6"/>
		<stop  offset="0.4109" style="stop-color:#62A6E8"/>
		<stop  offset="0.5049" style="stop-color:#5DA3E8"/>
		<stop  offset="0.5922" style="stop-color:#65A7E7"/>
		<stop  offset="0.7309" style="stop-color:#7CB3E5"/>
		<stop  offset="0.9027" style="stop-color:#A2C6E2"/>
		<stop  offset="1" style="stop-color:#BAD3E0"/>
	</linearGradient>
	<polygon class="st4" points="478.9,149.3 487.8,158.2 487.8,191.9 480,204.7 408.6,204.7 399.7,192.3 399.7,160.8 408.2,149.3 	"/>
	
		<linearGradient id="SVGID_4_" gradientUnits="userSpaceOnUse" x1="3039.7019" y1="151.9549" x2="3039.7019" y2="207.1863" gradientTransform="matrix(-1 0 0 1 3150.7583 0)">
		<stop  offset="0" style="stop-color:#BAD3E0"/>
		<stop  offset="5.468234e-02" style="stop-color:#A9CAE1"/>
		<stop  offset="0.1799" style="stop-color:#88B9E4"/>
		<stop  offset="0.2997" style="stop-color:#70ADE6"/>
		<stop  offset="0.4109" style="stop-color:#62A6E8"/>
		<stop  offset="0.5049" style="stop-color:#5DA3E8"/>
		<stop  offset="0.5922" style="stop-color:#65A7E7"/>
		<stop  offset="0.7309" style="stop-color:#7CB3E5"/>
		<stop  offset="0.9027" style="stop-color:#A2C6E2"/>
		<stop  offset="1" style="stop-color:#BAD3E0"/>
	</linearGradient>
	<polygon class="st5" points="141.9,152.1 149.7,159.9 149.7,189.5 142.8,200.7 80.2,200.7 72.4,189.8 72.4,162.2 79.9,152.1 	"/>
	
		<linearGradient id="SVGID_5_" gradientUnits="userSpaceOnUse" x1="3079.2366" y1="167.3807" x2="3126.4084" y2="167.3807" gradientTransform="matrix(-1 0 0 1 3150.7583 0)">
		<stop  offset="0" style="stop-color:#2771AD"/>
		<stop  offset="0.6101" style="stop-color:#5C9DD1"/>
		<stop  offset="1" style="stop-color:#7AB5E5"/>
	</linearGradient>
	<polygon class="st6" points="71.5,168.2 71.5,177.1 24.4,177.1 30.3,169.1 30.3,157.7 	"/>
	
		<linearGradient id="SVGID_6_" gradientUnits="userSpaceOnUse" x1="3120.4546" y1="128.0684" x2="3140.3562" y2="128.0684" gradientTransform="matrix(-1 0 0 1 3150.7583 0)">
		<stop  offset="0" style="stop-color:#2771AD"/>
		<stop  offset="0.6101" style="stop-color:#5C9DD1"/>
		<stop  offset="1" style="stop-color:#7AB5E5"/>
	</linearGradient>
	<polygon class="st7" points="30.3,115.6 18.6,115.6 10.4,135 10.4,140.5 30.3,140.5 	"/>
	
		<linearGradient id="SVGID_7_" gradientUnits="userSpaceOnUse" x1="3120.4546" y1="148.1541" x2="3148.6619" y2="148.1541" gradientTransform="matrix(-1 0 0 1 3150.7583 0)">
		<stop  offset="0" style="stop-color:#2771AD"/>
		<stop  offset="0.6101" style="stop-color:#5C9DD1"/>
		<stop  offset="1" style="stop-color:#7AB5E5"/>
	</linearGradient>
	<rect x="2.1" y="140.5" class="st8" width="28.2" height="15.3"/>
	
		<linearGradient id="SVGID_8_" gradientUnits="userSpaceOnUse" x1="2960.6299" y1="100.549" x2="3132.1672" y2="100.549" gradientTransform="matrix(-1 0 0 1 3150.7583 0)">
		<stop  offset="0" style="stop-color:#5DA3E8"/>
		<stop  offset="1" style="stop-color:#9FC7E2"/>
	</linearGradient>
	<polygon class="st9" points="18.6,115.6 66,98.5 188.5,85.5 176.4,92.3 176.4,97.6 190.1,101.8 30.3,115.6 	"/>
	<line class="st10" x1="20.4" y1="140.5" x2="20.4" y2="155.8"/>
	<rect x="30.3" y="140.5" class="st2" width="11.5" height="14.4"/>
	<rect x="41.8" y="137.2" class="st2" width="21.8" height="17.7"/>
	<rect x="48.1" y="125.6" class="st2" width="11" height="11.5"/>
	<path class="st0" d="M196.7,192.6c1.9,0,3.5-1.6,3.5-3.5c0-1.9-1.6-3.5-3.5-3.5c-20.1,0-27.2-15.5-34.7-31.9
		c-1.4-3.1-2.9-6.3-4.4-9.3c-10.1-20-26.5-30.6-47.4-30.6c-13.5,0-24,6.6-31,10.9c-2.4,1.5-5.8,3.6-6.8,3.6H59.8
		c-1.9,0-3.5,1.6-3.5,3.5s1.6,3.5,3.5,3.5h12.6c3,0,6.2-2,10.5-4.7c6.7-4.2,15.8-9.9,27.3-9.9c18.1,0,32.3,9.3,41.2,26.8
		c1.5,2.9,2.9,6,4.3,9C163.4,173.5,172.1,192.6,196.7,192.6z"/>
	<polyline class="st11" points="211.2,168.3 198.6,137 188.8,101.9 	"/>
	<line class="st11" x1="153.5" y1="137.4" x2="412.6" y2="137.4"/>
	
		<rect x="197.3" y="183.3" transform="matrix(-1 -4.490065e-11 4.490065e-11 -1 556.2758 378.6417)" class="st12" width="161.6" height="12.1"/>
	
		<linearGradient id="SVGID_9_" gradientUnits="userSpaceOnUse" x1="2875.3772" y1="76.7486" x2="2974.3435" y2="76.7486" gradientTransform="matrix(-1 0 0 1 3150.7583 0)">
		<stop  offset="0" style="stop-color:#FFFFFF"/>
		<stop  offset="1" style="stop-color:#7AB5E5"/>
	</linearGradient>
	<polygon class="st13" points="188.5,85.5 275.4,51.7 275.4,58.8 190.1,101.8 176.4,97.6 176.4,92.3 	"/>
	<line class="st11" x1="214.8" y1="183.3" x2="214.8" y2="195.4"/>
	<line class="st11" x1="342.9" y1="183.3" x2="342.9" y2="195.4"/>
	<rect x="322.6" y="132.8" class="st10" width="18.7" height="8.8"/>
	<path class="st0" d="M359,191.7c14.1,0,30.9-20.9,30.9-38.5c0-15.9,10.3-36,16.6-36c1.9,0,3.5-1.6,3.5-3.5c0-1.9-1.6-3.5-3.5-3.5
		c-7.9,0-13.8,9.8-16.7,15.6c-4.2,8.6-6.9,19.1-6.9,27.3c0,14.9-14.3,31.6-23.9,31.6c-1.9,0-3.5,1.6-3.5,3.5
		C355.5,190.2,357,191.7,359,191.7z"/>
	
		<linearGradient id="SVGID_10_" gradientUnits="userSpaceOnUse" x1="2589.0693" y1="140.4331" x2="2611.6602" y2="140.4331" gradientTransform="matrix(-1 0 0 1 3150.7583 0)">
		<stop  offset="0" style="stop-color:#2771AD"/>
		<stop  offset="1" style="stop-color:#7AB5E5"/>
	</linearGradient>
	<polygon class="st14" points="542.2,128.7 561.7,128.7 559.3,144 554,146.5 539.1,152.2 	"/>
	
		<linearGradient id="SVGID_11_" gradientUnits="userSpaceOnUse" x1="2593.3508" y1="107.3719" x2="2615.384" y2="107.3719" gradientTransform="matrix(-1 0 0 1 3150.7583 0)">
		<stop  offset="0" style="stop-color:#2771AD"/>
		<stop  offset="1" style="stop-color:#7AB5E5"/>
	</linearGradient>
	<polygon class="st15" points="537.5,101.8 535.4,86.1 550.4,89.9 557.4,128.7 542.2,128.7 	"/>
	<rect x="275.4" y="51.7" class="st10" width="110.3" height="7"/>
	<polygon class="st10" points="367.3,45.4 367.3,51.7 385.7,51.7 393.8,55.3 393.8,45.4 	"/>
	<rect x="376.9" y="38.3" class="st10" width="6.8" height="7.1"/>
	
		<linearGradient id="SVGID_12_" gradientUnits="userSpaceOnUse" x1="2758.1116" y1="33.9986" x2="2783.4783" y2="33.9986" gradientTransform="matrix(-1 0 0 1 3150.7583 0)">
		<stop  offset="0" style="stop-color:#7AB5E5"/>
		<stop  offset="4.834306e-02" style="stop-color:#73AFE0"/>
		<stop  offset="0.313" style="stop-color:#5294CA"/>
		<stop  offset="0.5663" style="stop-color:#3A81BA"/>
		<stop  offset="0.8013" style="stop-color:#2C75B0"/>
		<stop  offset="1" style="stop-color:#2771AD"/>
	</linearGradient>
	<rect x="367.3" y="29.7" class="st16" width="25.4" height="8.5"/>
	<polygon class="st12" points="393.8,55.3 385.7,51.7 385.7,58.8 275.4,58.8 190.1,101.8 537.5,101.8 535.4,86.1 	"/>
	<polygon class="st2" points="404.9,64.7 404.9,96 521.2,96 521.2,89 	"/>
	
		<linearGradient id="SVGID_13_" gradientUnits="userSpaceOnUse" x1="2589.0693" y1="67.9406" x2="2666.8479" y2="67.9406" gradientTransform="matrix(-1 0 0 1 3150.7583 0)">
		<stop  offset="0" style="stop-color:#7AB5E5"/>
		<stop  offset="4.834306e-02" style="stop-color:#73AFE0"/>
		<stop  offset="0.313" style="stop-color:#5294CA"/>
		<stop  offset="0.5663" style="stop-color:#3A81BA"/>
		<stop  offset="0.8013" style="stop-color:#2C75B0"/>
		<stop  offset="1" style="stop-color:#2771AD"/>
	</linearGradient>
	<polygon class="st17" points="552.6,101.9 559.2,97.6 561.7,68.7 554,34 483.9,74.9 550.4,89.9 	"/>
	<polygon class="st10" points="540.8,34 475.4,73 483.9,74.9 554,34 	"/>
	
		<linearGradient id="SVGID_14_" gradientUnits="userSpaceOnUse" x1="2622.1919" y1="46.1119" x2="2657.6917" y2="46.1119" gradientTransform="matrix(-1 0 0 1 3150.7583 0)">
		<stop  offset="0" style="stop-color:#7AB5E5"/>
		<stop  offset="4.834306e-02" style="stop-color:#73AFE0"/>
		<stop  offset="0.313" style="stop-color:#5294CA"/>
		<stop  offset="0.5663" style="stop-color:#3A81BA"/>
		<stop  offset="0.8013" style="stop-color:#2C75B0"/>
		<stop  offset="1" style="stop-color:#2771AD"/>
	</linearGradient>
	<polygon class="st18" points="525.1,32.8 528.6,41.3 496.3,60.5 496.3,49.4 493.1,45.4 514.7,31.7 	"/>
	
		<linearGradient id="SVGID_15_" gradientUnits="userSpaceOnUse" x1="2661.4143" y1="68.8502" x2="2687.6809" y2="68.8502" gradientTransform="matrix(-1 0 0 1 3150.7583 0)">
		<stop  offset="0" style="stop-color:#7AB5E5"/>
		<stop  offset="0.1053" style="stop-color:#70AFE6"/>
		<stop  offset="0.3216" style="stop-color:#62A6E7"/>
		<stop  offset="0.5049" style="stop-color:#5DA3E8"/>
		<stop  offset="0.6167" style="stop-color:#65A8E7"/>
		<stop  offset="0.7943" style="stop-color:#7CB4E5"/>
		<stop  offset="1" style="stop-color:#9FC7E2"/>
	</linearGradient>
	<polygon class="st19" points="463.1,70.3 467.8,64.7 489.3,64.7 475.4,73 	"/>
	
		<linearGradient id="SVGID_16_" gradientUnits="userSpaceOnUse" x1="2654.4119" y1="44.2861" x2="2683.6267" y2="44.2861" gradientTransform="matrix(-1 0 0 1 3150.7583 0)">
		<stop  offset="0" style="stop-color:#7AB5E5"/>
		<stop  offset="0.1053" style="stop-color:#70AFE6"/>
		<stop  offset="0.3216" style="stop-color:#62A6E7"/>
		<stop  offset="0.5049" style="stop-color:#5DA3E8"/>
		<stop  offset="0.6167" style="stop-color:#65A8E7"/>
		<stop  offset="0.7943" style="stop-color:#7CB4E5"/>
		<stop  offset="1" style="stop-color:#9FC7E2"/>
	</linearGradient>
	<polygon class="st20" points="493.1,45.4 489.3,38.3 474.3,38.3 467.1,50.3 496.3,49.4 	"/>
	
		<linearGradient id="SVGID_17_" gradientUnits="userSpaceOnUse" x1="2654.4119" y1="57.0602" x2="2683.6267" y2="57.0602" gradientTransform="matrix(-1 0 0 1 3150.7583 0)">
		<stop  offset="0" style="stop-color:#7AB5E5"/>
		<stop  offset="0.1053" style="stop-color:#70AFE6"/>
		<stop  offset="0.3216" style="stop-color:#62A6E7"/>
		<stop  offset="0.5049" style="stop-color:#5DA3E8"/>
		<stop  offset="0.6167" style="stop-color:#65A8E7"/>
		<stop  offset="0.7943" style="stop-color:#7CB4E5"/>
		<stop  offset="1" style="stop-color:#9FC7E2"/>
	</linearGradient>
	<polygon class="st21" points="467.8,64.7 467.1,50.3 496.3,49.4 496.3,60.5 489.3,64.7 	"/>
	<polygon class="st10" points="525.1,32.8 496.3,49.4 493.1,45.4 514.7,31.7 	"/>
	
		<linearGradient id="SVGID_18_" gradientUnits="userSpaceOnUse" x1="2661.4143" y1="20.2885" x2="2676.9268" y2="20.2885" gradientTransform="matrix(-1 0 0 1 3150.7583 0)">
		<stop  offset="0" style="stop-color:#7AB5E5"/>
		<stop  offset="0.1053" style="stop-color:#70AFE6"/>
		<stop  offset="0.3216" style="stop-color:#62A6E7"/>
		<stop  offset="0.5049" style="stop-color:#5DA3E8"/>
		<stop  offset="0.6167" style="stop-color:#65A8E7"/>
		<stop  offset="0.7943" style="stop-color:#7CB4E5"/>
		<stop  offset="1" style="stop-color:#9FC7E2"/>
	</linearGradient>
	<rect x="473.8" y="2.3" class="st22" width="15.5" height="35.9"/>
	<rect x="537.5" y="54.4" class="st0" width="11.5" height="11.6"/>
	<line class="st11" x1="505.1" y1="85.7" x2="505.1" y2="96"/>
	<rect x="489.3" y="84.5" class="st0" width="10.1" height="11.6"/>
	<line class="st11" x1="542.2" y1="128.7" x2="463.1" y2="128.7"/>
	<polygon class="st2" points="512.4,172.4 516.6,181.8 527.4,183.3 541,172.4 538.8,165.1 	"/>
	<path class="st0" d="M480.2,81.3c0.7,0,1.4-0.2,2-0.6c8.2-5.7,24.3-6.3,32.3-4.3c1.9,0.5,3.7-0.7,4.2-2.5c0.5-1.9-0.7-3.7-2.5-4.2
		c-9.3-2.4-27.6-1.8-37.9,5.3c-1.6,1.1-2,3.2-0.9,4.8C478.1,80.7,479.1,81.3,480.2,81.3z"/>
	<path class="st0" d="M533.4,171.9c0.6,0,1.2-0.2,1.8-0.5c1.6-1,2.2-3.1,1.2-4.8L505,114.3c-1.5-2.5-4.2-4.1-7.2-4.1h-94.7
		c-10.6,0-19.2-8.6-19.2-19.2V62.8c0-3.6-1.5-7-4.2-9.4l-4.8-4.3c-1.4-1.3-3.6-1.2-4.9,0.2c-1.3,1.4-1.2,3.6,0.2,4.9l4.8,4.3
		c1.2,1.1,1.9,2.6,1.9,4.2v28.3c0,14.4,11.7,26.1,26.1,26.1h94.7c0.5,0,1,0.3,1.2,0.7l31.3,52.4
		C531.1,171.3,532.2,171.9,533.4,171.9z"/>
	<path class="st0" d="M524.5,174.3c0.6,0,1.3-0.2,1.8-0.5c1.6-1,2.1-3.2,1.1-4.8l-5.6-8.8c-0.4-0.6-0.4-1.5,0-2.1l5.5-8
		c2.1-3,2.3-6.8,0.5-10L512.3,111c-2.7-5-7.9-8.1-13.6-8.1h-95.8c-5.1,0-9.2-4.1-9.2-9.2V59.8c0-4-2-7.7-5.3-9.9l-2.8-1.9
		c-1.6-1.1-3.7-0.6-4.8,0.9c-1.1,1.6-0.6,3.7,0.9,4.8l2.8,1.9c1.4,0.9,2.2,2.5,2.2,4.1v33.9c0,8.9,7.2,16.1,16.1,16.1h95.8
		c3.2,0,6,1.7,7.5,4.5l15.7,29.1c0.5,0.9,0.4,2-0.2,2.8l-5.5,8c-2,2.9-2.1,6.7-0.2,9.7l5.6,8.8C522.3,173.7,523.4,174.3,524.5,174.3
		z"/>
	<path class="st23" d="M443.3,146.7c1.4,0,2.5-1.1,2.5-2.5v-15.1c0-1.4-1.1-2.5-2.5-2.5s-2.5,1.1-2.5,2.5v15.1
		C440.8,145.6,441.9,146.7,443.3,146.7z"/>
	<rect x="450.2" y="133.9" class="st23" width="13.8" height="5"/>
	<rect x="450.2" y="141.8" class="st23" width="13.8" height="5"/>
	<rect x="422.3" y="133.9" class="st23" width="13.8" height="5"/>
	<rect x="422.3" y="141.8" class="st23" width="13.8" height="5"/>
	<path class="st23" d="M112.7,149c1.4,0,2.5-1.1,2.5-2.5v-9.4c0-1.4-1.1-2.5-2.5-2.5s-2.5,1.1-2.5,2.5v9.4
		C110.3,147.9,111.4,149,112.7,149z"/>
	<rect x="118" y="140.8" class="st23" width="8.5" height="5"/>
	<rect x="98.7" y="140.8" class="st23" width="8.5" height="5"/>
	<path class="st24" d="M423.3,84.8h43c1,0,1.8-0.8,1.8-1.8c0-1-0.8-1.8-1.8-1.8h-43c-1,0-1.8,0.8-1.8,1.8
		C421.5,84,422.3,84.8,423.3,84.8z"/>
	<path class="st24" d="M423.5,91.9h48.2c1.1,0,2-0.9,2-2c0-1.1-0.9-2-2-2h-48.2c-1.1,0-2,0.9-2,2C421.5,91,422.4,91.9,423.5,91.9z"
		/>
	<line class="st11" x1="487.8" y1="160.3" x2="399.7" y2="160.3"/>
	<line class="st11" x1="487.8" y1="177" x2="399.7" y2="177"/>
	<line class="st11" x1="487.8" y1="192.3" x2="399.7" y2="192.3"/>
	<line class="st11" x1="487.8" y1="184.6" x2="399.7" y2="184.6"/>
	<line class="st11" x1="149.7" y1="176.4" x2="72.4" y2="176.4"/>
	<line class="st11" x1="149.7" y1="160.8" x2="73.1" y2="160.8"/>
	<line class="st11" x1="148.9" y1="184.4" x2="71.7" y2="184.4"/>
	<line class="st11" x1="147.3" y1="193.5" x2="75" y2="193.5"/>
	<polyline class="st11" points="483.4,160.3 477.7,168.5 482.9,177 477.7,184.6 482.7,192.3 	"/>
	<polyline class="st11" points="470.9,160.3 465.2,168.5 470.4,177 465.2,184.6 470.2,192.3 	"/>
	<polyline class="st11" points="458.3,160.3 452.6,168.5 457.8,177 452.6,184.6 457.6,192.3 	"/>
	<polyline class="st11" points="445.8,160.3 440.1,168.5 445.3,177 440.1,184.6 445.1,192.3 	"/>
	<polyline class="st11" points="433.2,160.3 427.5,168.5 432.7,177 427.5,184.6 432.5,192.3 	"/>
	<polyline class="st11" points="420.7,160.3 415,168.5 420.2,177 415,184.6 420,192.3 	"/>
	<polyline class="st11" points="408.1,160.3 402.4,168.5 407.6,177 402.4,184.6 407.4,192.3 	"/>
	<polyline class="st11" points="144.2,160.8 137.9,168.2 143.8,176.4 137.9,184.4 143.8,193.5 	"/>
	<polyline class="st11" points="132.6,160.8 126.4,168.2 132.3,176.4 126.4,184.4 132.3,193.5 	"/>
	<polyline class="st11" points="121.1,160.8 114.8,168.2 120.7,176.4 114.8,184.4 120.7,193.5 	"/>
	<polyline class="st11" points="109.5,160.8 103.2,168.2 109.1,176.4 103.2,184.4 109.1,193.5 	"/>
	<polyline class="st11" points="97.9,160.8 91.7,168.2 97.6,176.4 91.7,184.4 97.6,193.5 	"/>
	<polyline class="st11" points="86.4,160.8 80.1,168.2 86,176.4 80.1,184.4 86,193.5 	"/>
	<line class="st0" x1="487.8" y1="168.5" x2="399.7" y2="168.5"/>
	<line class="st0" x1="71.5" y1="168.2" x2="152.6" y2="168.2"/>
	
		<linearGradient id="SVGID_19_" gradientUnits="userSpaceOnUse" x1="2863.9526" y1="66.343" x2="2863.9526" y2="99.7353" gradientTransform="matrix(-1 0 0 1 3150.7583 0)">
		<stop  offset="0" style="stop-color:#FFFFFF"/>
		<stop  offset="1" style="stop-color:#7AB5E5"/>
	</linearGradient>
	<path class="st25" d="M206.3,101.8L278.1,66h83.1c3.4,0,6.1,2.8,6.1,6.1v22.1c0,4.2-3.4,7.7-7.7,7.6L206.3,101.8z"/>
	<path class="st11" d="M339.2,88v13.9h-80.4l34.8-17.9h41.5C337.4,83.9,339.2,85.7,339.2,88z"/>
	<path class="st2" d="M227.7,107.6c-4.2,0-7.7-3.4-7.7-7.7s3.4-7.7,7.7-7.7h12.1v15.3H227.7z"/>
</g>
</svg>
